<svg width="94" height="16" viewBox="0 0 94 16" fill="none" xmlns="http://www.w3.org/2000/svg">
<path d="M8.53333 0L11.1701 5.26604L17.0667 6.11567L12.8 10.2124L13.8069 16L8.53333 13.266L3.25973 16L4.26667 10.2124L0 6.11567L5.89653 5.26604L8.53333 0Z" fill="#FFE600"/>
<path d="M27.7333 0L30.3701 5.26604L36.2666 6.11567L32 10.2124L33.0069 16L27.7333 13.266L22.4597 16L23.4666 10.2124L19.2 6.11567L25.0965 5.26604L27.7333 0Z" fill="#FFE600"/>
<path d="M45.2392 0L47.876 5.26604L53.7726 6.11567L49.5059 10.2124L50.5128 16L45.2392 13.266L39.9656 16L40.9726 10.2124L36.7059 6.11567L42.6024 5.26604L45.2392 0Z" fill="#FFE600"/>
<path d="M66.1333 0L68.7701 5.26604L74.6667 6.11567L70.4 10.2124L71.4069 16L66.1333 13.266L60.8597 16L61.8667 10.2124L57.6 6.11567L63.4965 5.26604L66.1333 0Z" fill="#FFE600"/>
<path d="M85.3333 0L87.9701 5.26604L93.8667 6.11567L89.6 10.2124L90.6069 16L85.3333 13.266L80.0597 16L81.0667 10.2124L76.8 6.11567L82.6965 5.26604L85.3333 0Z" fill="#FFE600"/>
</svg>
